<?xml version="1.0" standalone="no"?>
<!DOCTYPE svg PUBLIC "-//W3C//DTD SVG 20010904//EN"
 "http://www.w3.org/TR/2001/REC-SVG-20010904/DTD/svg10.dtd">
<svg version="1.0" xmlns="http://www.w3.org/2000/svg"
 width="512.000000pt" height="512.000000pt" viewBox="0 0 512.000000 512.000000"
 preserveAspectRatio="xMidYMid meet">

<g transform="translate(0.000000,512.000000) scale(0.100000,-0.100000)"
fill="#ffffff" stroke="none">
<path d="M1775 4409 c-209 -26 -388 -182 -449 -388 -9 -30 -16 -70 -16 -88 l0
-33 -89 0 c-168 0 -306 -58 -427 -179 -110 -110 -180 -286 -172 -436 2 -55 0
-66 -14 -71 -42 -13 -168 -107 -223 -165 -77 -82 -118 -146 -158 -250 -31 -81
-32 -89 -32 -239 0 -150 1 -158 32 -239 40 -104 81 -168 158 -250 55 -58 181
-152 223 -165 14 -5 16 -16 14 -71 -2 -38 3 -98 13 -141 62 -279 301 -474 581
-474 59 0 86 -4 88 -12 2 -7 8 -40 15 -73 35 -188 191 -354 385 -410 78 -23
214 -23 292 0 179 52 326 197 378 375 9 30 19 104 22 165 l7 110 157 0 157 0
7 -110 c10 -181 55 -292 159 -396 108 -108 236 -161 387 -161 152 0 279 52
384 158 88 87 156 227 156 320 l0 32 108 4 c174 7 296 61 417 185 102 105 171
284 163 428 -2 55 0 66 14 71 41 13 168 107 224 165 71 76 121 157 160 259 27
71 28 84 28 230 1 150 0 157 -31 239 -40 104 -81 168 -158 250 -55 58 -181
152 -223 165 -14 5 -16 16 -14 71 8 144 -61 323 -163 428 -121 124 -243 178
-417 185 l-108 4 0 32 c0 93 -68 233 -156 320 -105 106 -232 158 -384 158
-151 0 -279 -53 -387 -161 -104 -104 -149 -215 -159 -396 l-7 -110 -157 0
-157 0 -7 110 c-7 129 -24 195 -73 284 -106 191 -325 299 -548 270z m195 -271
c60 -26 124 -90 151 -152 18 -41 23 -76 27 -176 l4 -125 -74 -33 c-132 -58
-254 -145 -368 -261 -157 -160 -249 -321 -307 -538 -25 -90 -27 -113 -27 -293
0 -180 2 -203 27 -293 58 -217 150 -378 307 -538 114 -116 236 -203 368 -261
l74 -33 -4 -125 c-6 -147 -25 -203 -91 -268 -117 -115 -297 -115 -414 0 -75
74 -105 177 -79 278 26 99 22 136 -18 176 -45 45 -102 47 -179 7 -46 -25 -63
-28 -147 -28 -110 0 -160 18 -230 81 -54 49 -84 96 -104 164 -20 68 -20 108 0
196 27 115 4 159 -104 194 -217 71 -342 235 -342 450 0 215 125 379 342 450
108 35 131 79 104 194 -20 88 -20 128 0 196 20 68 50 115 104 164 70 63 120
81 230 81 84 0 101 -3 147 -28 77 -40 134 -38 179 7 40 40 44 77 18 176 -60
236 180 436 406 338z m1420 0 c128 -55 201 -202 166 -338 -26 -99 -22 -136 18
-176 45 -45 102 -47 179 -7 46 25 63 28 147 28 113 0 163 -18 238 -89 94 -88
128 -209 97 -346 -28 -123 -6 -165 103 -200 217 -71 342 -235 342 -450 0 -215
-125 -379 -342 -450 -109 -35 -131 -77 -103 -200 31 -137 -3 -258 -97 -346
-75 -71 -125 -89 -238 -89 -84 0 -101 3 -147 28 -77 40 -134 38 -179 -7 -40
-40 -44 -77 -18 -176 26 -101 -4 -204 -79 -278 -117 -115 -297 -115 -414 0
-66 65 -85 121 -91 268 l-4 125 74 33 c132 58 254 145 368 261 157 160 249
321 307 538 25 90 27 113 27 293 0 180 -2 203 -27 293 -58 217 -150 378 -307
538 -114 116 -236 203 -368 261 l-74 33 4 125 c4 100 9 135 27 175 68 153 237
220 391 153z m-581 -667 c327 -96 568 -338 663 -667 20 -68 23 -102 23 -244 0
-142 -3 -176 -23 -244 -96 -331 -337 -572 -668 -668 -68 -20 -102 -23 -244
-23 -142 0 -176 3 -244 23 -329 95 -572 337 -666 663 -31 106 -39 316 -15 430
75 373 357 660 730 743 104 23 344 16 444 -13z"/>
<path d="M2054 3031 c-45 -33 -233 -224 -258 -261 -20 -30 -21 -92 -2 -128 16
-29 235 -249 276 -276 13 -9 44 -16 67 -16 51 0 108 44 118 90 13 57 -4 90
-91 180 l-83 86 74 74 c41 41 82 90 91 108 24 50 13 100 -31 140 -47 44 -105
45 -161 3z"/>
<path d="M2694 3026 c-17 -8 -40 -27 -51 -42 -11 -16 -104 -195 -207 -399
-194 -386 -201 -406 -171 -465 33 -64 132 -81 185 -32 19 17 99 165 226 415
168 333 195 393 190 420 -17 85 -101 135 -172 103z"/>
<path d="M2940 2793 c-25 -9 -58 -43 -70 -74 -24 -56 -6 -96 88 -191 l86 -88
-87 -88 c-94 -95 -108 -124 -87 -186 19 -60 87 -94 151 -76 36 11 278 242 305
292 8 15 14 46 14 70 0 41 -4 46 -153 195 -147 147 -154 153 -192 152 -22 0
-47 -3 -55 -6z"/>
</g>
</svg>
